<svg xmlns="http://www.w3.org/2000/svg" width="25" height="22.222" viewBox="0 0 25 22.222">
  <path id="Icon_awesome-external-link-alt" data-name="Icon awesome-external-link-alt" d="M25,1.042V6.6a1.042,1.042,0,0,1-1.778.737l-1.55-1.55L11.1,16.353a1.042,1.042,0,0,1-1.473,0l-.982-.982a1.042,1.042,0,0,1,0-1.473l10.57-10.57-1.55-1.55A1.042,1.042,0,0,1,18.4,0h5.555A1.042,1.042,0,0,1,25,1.042ZM17.666,11.753l-.694.694a1.042,1.042,0,0,0-.305.737v6.26H2.778V5.556H14.236a1.042,1.042,0,0,0,.737-.305l.694-.694a1.042,1.042,0,0,0-.737-1.778H2.083A2.083,2.083,0,0,0,0,4.861V20.139a2.083,2.083,0,0,0,2.083,2.083H17.361a2.083,2.083,0,0,0,2.083-2.083V12.49A1.042,1.042,0,0,0,17.666,11.753Z" fill="#fff"/>
</svg>
